Coordinates
version=1
nRows=9
nColumns=40
inDegrees=yes

Units are S.I. units (second, meters, Newtons, ...)
If the header above contains a line with 'inDegrees', this indicates whether rotational values are in degrees (yes) or radians (no).

endheader
time	pelvis_tilt	pelvis_list	pelvis_rotation	pelvis_tx	pelvis_ty	pelvis_tz	hip_flexion_r	hip_adduction_r	hip_rotation_r	knee_angle_r	knee_angle_r_beta	ankle_angle_r	subtalar_angle_r	mtp_angle_r	hip_flexion_l	hip_adduction_l	hip_rotation_l	knee_angle_l	knee_angle_l_beta	ankle_angle_l	subtalar_angle_l	mtp_angle_l	lumbar_extension	lumbar_bending	lumbar_rotation	arm_flex_r	arm_add_r	arm_rot_r	elbow_flex_r	pro_sup_r	wrist_flex_r	wrist_dev_r	arm_flex_l	arm_add_l	arm_rot_l	elbow_flex_l	pro_sup_l	wrist_flex_l	wrist_dev_l
     17.57499999999999928946	      9.97718398535431383323	     -3.61449470072796152920	   -179.19874105973698874550	      0.27744479904787827662	      0.69919305591784952636	     -0.94764371869734964626	     68.44394697832038332308	    -48.84805877899538728570	     -5.66100423126251417472	     67.29293123486550598500	      1.17448321336653682678	      2.45557560229141991215	      0.00000000000000000000	      0.00000000000000000000	     60.79167923115441141135	    -41.11041654711348769524	    -10.10380733362327276836	     67.63314929943000208823	      1.18042113876794974026	      7.99363735367243588570	      0.00000000000000000000	      0.00000000000000000000	    -63.23982594020110070687	      0.21550939651240397232	     -3.21274445507680717071	     54.04336100720040292344	    -10.07564247417595382217	     38.00524188303639050446	      6.76721535551977648737	     38.13188881573297805971	      0.00000000000000000000	      0.00000000000000000000	     61.29092375321452124126	    -15.34929870119606398760	     44.23516248503897685396	     18.90761570793359425124	     78.82654810360480723830	      0.00000000000000000000	      0.00000000000000000000
     17.57999999999999829470	     10.41818614382286334319	     -3.47075282683165919906	   -179.03180891562837473430	      0.27794702783422803316	      0.69892510156077658490	     -0.94708446151179515038	     68.61030208259123241987	    -48.83438478546163707961	     -5.92435537251695887306	     67.12291741000923650518	      1.17151591234888585724	      2.56612034144865264196	      0.00000000000000000000	      0.00000000000000000000	     61.49726184640740456189	    -40.88528114925116341283	     -9.62538805190157731317	     67.57335439556662493032	      1.17937752081962043960	      7.97531382218944528972	      0.00000000000000000000	      0.00000000000000000000	    -62.86280717333041678785	      0.44234271866359820002	     -3.13293014696400229369	     53.92576033644282063051	    -10.39970872931859524613	     37.91889618403344286435	      7.92778590021798112986	     38.16913923092611327093	      0.00000000000000000000	      0.00000000000000000000	     61.12164673999363628809	    -15.50683084088381136212	     44.02203975211379827215	     19.43576476169056732601	     77.85743555497387546893	      0.00000000000000000000	      0.00000000000000000000
     17.58500000000000085265	      9.99260080825039409547	     -3.64017890728504678322	   -179.21605610843280942390	      0.27758465821055539058	      0.70063294603397263671	     -0.94730743548685936162	     68.19154368841640234677	    -48.81621328079077670736	     -5.86920149243896815960	     66.95062702203739490869	      1.16850887780923873294	      2.29947471166517436458	      0.00000000000000000000	      0.00000000000000000000	     60.54660426964022690299	    -41.01219592592398299757	    -10.31897243358378446487	     67.36169297503126074389	      1.17568333213183007224	      7.85996514794372735935	      0.00000000000000000000	      0.00000000000000000000	    -63.37800815287750566540	      0.23205244010858444570	     -3.21423518733918989199	     54.25567425079416494782	    -10.05613930681103340703	     37.78432565962609146482	      6.80286683589520535520	     37.84587621572493532085	      0.00000000000000000000	      0.00000000000000000000	     61.42544422967946360359	    -15.35877893846868857963	     44.30121898054157725255	     18.94339990800651563063	     79.45434135176640211284	      0.00000000000000000000	      0.00000000000000000000
     17.58999999999999985789	     10.20847163206460628260	     -3.54608798165833105642	   -179.15948774362408357774	      0.27787501917942830643	      0.70071163657777069123	     -0.94702225871457723638	     68.25102559138710489606	    -48.79516881773047742854	     -6.07330594220223218827	     66.85317670870553286022	      1.16680804898449763662	      2.13225616385892902116	      0.00000000000000000000	      0.00000000000000000000	     60.90750599044733348819	    -40.94292513527707200183	    -10.07088346110560372892	     67.34118673364086760103	      1.17532543070235884208	      7.76341370899442040354	      0.00000000000000000000	      0.00000000000000000000	    -63.20405320001945170816	      0.34046832999745008097	     -3.08507323955601897580	     54.08435924358406055035	    -10.17748989123423086767	     37.96010228873385727866	      6.97510819954477856442	     37.81542186046421250012	      0.00000000000000000000	      0.00000000000000000000	     61.43672247784226669864	    -15.29487210710450284523	     44.30050344918512195136	     19.01159262147852047065	     79.24408158989177763942	      0.00000000000000000000	      0.00000000000000000000
     17.59499999999999886313	     10.23178477101519412429	     -3.57490446866704703055	   -179.18391326464495705295	      0.27804232864480460385	      0.70146492389698045233	     -0.94686099220457298209	     68.16309026889523181580	    -48.75683803217049216983	     -6.14172143259053271436	     66.64062364974391527994	      1.16309829827043165196	      1.94954155146734420256	      0.00000000000000000000	      0.00000000000000000000	     60.76383580139197704284	    -40.88427535683413793777	    -10.22301771923420865562	     67.17072081782298198505	      1.17235023920890935045	      7.68838059698916786999	      0.00000000000000000000	      0.00000000000000000000	    -63.26805450646474326959	      0.33926501113305440605	     -3.09492567539354812567	     54.18514325872143899687	    -10.21059129081321259491	     38.34532970870724000179	      6.83170335561706565386	     37.73307655840041263673	      0.00000000000000000000	      0.00000000000000000000	     61.52287414976624546625	    -15.22242366311127703682	     44.32996759284075949381	     18.91451616335368868249	     78.89264197266362543814	      0.00000000000000000000	      0.00000000000000000000
     17.60000000000000142109	     10.19851936871701525433	     -3.58914178488934698663	   -179.19483600826575298015	      0.27812812741356185420	      0.70226895628586516462	     -0.94668884886896453867	     67.97852260749060349099	    -48.75161503584284616863	     -6.27134590635470878794	     66.46596122705631159988	      1.16004986391502296073	      1.94777911063962916316	      0.00000000000000000000	      0.00000000000000000000	     60.56855389943246592566	    -40.82907603116434103185	    -10.34012737469442555494	     67.01705020635854737066	      1.16966818107530201587	      7.73950724568604009335	      0.00000000000000000000	      0.00000000000000000000	    -63.38860678867555265015	      0.33417248352065376249	     -3.15858627535246139217	     54.41774775140940079154	    -10.15958177970288822678	     38.25462684327377616000	      6.77254559749525508749	     37.57854649272388058989	      0.00000000000000000000	      0.00000000000000000000	     61.64944664408444907622	    -15.23286967955004200803	     44.38507862695614392123	     18.80267017372676008335	     78.87767101729913576946	      0.00000000000000000000	      0.00000000000000000000
     17.60500000000000042633	     10.18849168839012442334	     -3.60023641445980091547	   -179.19882661292649572715	      0.27823190012015636130	      0.70298882406026841352	     -0.94657361893972302713	     67.83383491885510352404	    -48.74023100771786687346	     -6.39581336274207234993	     66.30903865578230238498	      1.15731104837559617415	      1.89838250868864566456	      0.00000000000000000000	      0.00000000000000000000	     60.44188576319526617908	    -40.78880832928359012612	    -10.45152178464233116983	     66.88958276004224501321	      1.16744345444797326117	      7.66756851945587758479	      0.00000000000000000000	      0.00000000000000000000	    -63.50159923467085576476	      0.33766448623255845840	     -3.11267133380909788443	     54.40473444570034899925	    -10.19865844244587016476	     38.16571525718926238824	      6.86771209461397535989	     37.53897999840561539031	      0.00000000000000000000	      0.00000000000000000000	     61.84141165635711701043	    -15.14064193555249637768	     44.43397388013529791806	     18.64738165514535239708	     80.04729354474012836818	      0.00000000000000000000	      0.00000000000000000000
     17.60999999999999943157	     10.30320847663910477365	     -3.56045450561885745699	   -179.18387113159334944612	      0.27845880511263421120	      0.70349365479933889667	     -0.94633013633157259115	     67.79188037740132699582	    -48.71027377152385184900	     -6.54865168792476293191	     66.14414227926033618132	      1.15443306368067943879	      1.77082565329765451168	      0.00000000000000000000	      0.00000000000000000000	     60.51980381371847528271	    -40.73062345241342541158	    -10.43498838009347906564	     66.76530103990488385080	      1.16527432923153417832	      7.64251043759237713715	      0.00000000000000000000	      0.00000000000000000000	    -63.46988720674142570033	      0.39730120722820366774	     -3.06588571929606690247	     54.45530449853666254967	    -10.23387145286308452796	     38.29003997676264958727	      6.87363587714992085864	     37.45072652446096839185	      0.00000000000000000000	      0.00000000000000000000	     61.91781832621145298390	    -15.07559488339275688418	     44.42480077753866396506	     18.59407365054024197093	     79.72075492061263446431	      0.00000000000000000000	      0.00000000000000000000
     17.61499999999999843681	     10.42217394532562479981	     -3.50969794367531839896	   -179.16324260976369942000	      0.27874116306962232192	      0.70394755561383925979	     -0.94611315749296553967	     67.73527555738192518220	    -48.67981814557943209820	     -6.73545680723771678089	     65.98094893500160651456	      1.15158480250602401895	      1.61662305658521687768	      0.00000000000000000000	      0.00000000000000000000	     60.65305514787954166422	    -40.68698452366832185589	    -10.37159904872808624532	     66.67726282005628490879	      1.16373777242758147388	      7.50501247136194127307	      0.00000000000000000000	      0.00000000000000000000	    -63.43098373146494850516	      0.45275490996211820161	     -2.98082193535469341938	     54.48038535186581299286	    -10.33057049721116982255	     38.34612596329918687843	      6.91785607730534657378	     37.36143492431509827156	      0.00000000000000000000	      0.00000000000000000000	     62.00319559465415863997	    -14.98820521341525768833	     44.46675394999181918365	     18.57152451247206315088	     79.68339387323206324254	      0.00000000000000000000	      0.00000000000000000000
